<svg width="20" height="22" viewBox="0 0 20 22" fill="none" xmlns="http://www.w3.org/2000/svg">
    <rect y="2" width="20" height="20" rx="4" fill="#769250"/>
    <path d="M4 1C4 0.447715 4.44772 0 5 0C5.55228 0 6 0.447715 6 1V2H4V1Z" fill="#769250"/>
    <path d="M14 1C14 0.447715 14.4477 0 15 0C15.5523 0 16 0.447715 16 1V2H14V1Z" fill="#769250"/>
    <path d="M4 3C4 3.55228 4.44772 4 5 4C5.55228 4 6 3.55228 6 3V2H4V3Z" fill="#FFEBCD"/>
    <path d="M14 3C14 3.55228 14.4477 4 15 4C15.5523 4 16 3.55228 16 3V2H14V3Z" fill="#FFEBCD"/>
    <rect width="2" height="2" rx="1" transform="matrix(-1 0 0 1 15 9)" fill="#FFEBCD"/>
    <rect width="2" height="2" rx="1" transform="matrix(-1 0 0 1 15 12)" fill="#FFEBCD"/>
    <rect width="2" height="2" rx="1" transform="matrix(-1 0 0 1 7 12)" fill="#FFEBCD"/>
    <rect width="2" height="2" rx="1" transform="matrix(-1 0 0 1 7 15)" fill="#FFEBCD"/>
    <rect width="2" height="2" rx="1" transform="matrix(-1 0 0 1 11 9)" fill="#FFEBCD"/>
    <rect width="2" height="2" rx="1" transform="matrix(-1 0 0 1 11 12)" fill="#FFEBCD"/>
    <rect width="2" height="2" rx="1" transform="matrix(-1 0 0 1 11 15)" fill="#FFEBCD"/>
</svg>
