<svg width="416" height="192" fill="none" xmlns="http://www.w3.org/2000/svg"><path fill-rule="evenodd" clip-rule="evenodd" d="M55.86 182.172v4.788h67.032v-4.788l-20.976-3.42v-35.568h20.976v-10.716h-20.976V4.56h-5.244L0 138.396v4.788h76.836v35.568l-20.976 3.42zm20.976-49.704H11.172l65.664-90.972v90.972zm101.223 48.336c9.88 7.144 21.432 10.716 34.656 10.716s24.776-3.572 34.656-10.716c9.88-7.144 17.556-17.86 23.028-32.148 1.955-5.158 3.56-10.723 4.817-16.696h-26.245c-1.102 16.401-4.219 28.958-9.352 37.672-6.536 11.096-15.504 16.644-26.904 16.644s-20.368-5.548-26.904-16.644c-5.125-8.819-8.24-21.377-9.347-37.672h-26.249c1.256 5.973 2.861 11.538 4.816 16.696 5.472 14.288 13.148 25.004 23.028 32.148zM147.322 80.96c1.016-14.478 3.586-27.101 7.709-37.868 5.472-14.44 13.148-25.232 23.028-32.376C187.939 3.572 199.491 0 212.715 0s24.776 3.572 34.656 10.716c9.88 7.144 17.556 17.936 23.028 32.376 4.124 10.767 6.693 23.39 7.71 37.868h-28.686v-7.316c0-23.408-3.268-40.66-9.804-51.756-6.536-11.096-15.504-16.644-26.904-16.644s-20.368 5.548-26.904 16.644c-6.536 11.096-9.804 28.348-9.804 51.756v7.316h-28.685zm200.663 101.212v4.788h67.032v-4.788l-20.976-3.42v-35.568h20.976v-10.716h-20.976V4.56h-5.244l-96.672 133.836v4.788h76.836v35.568l-20.976 3.42zm20.976-49.704h-65.664l65.664-90.972v90.972z" fill="#000"/><path d="M144.414 116.96v-.63l2.76-.45V94.04l-2.76-.42v-.66h18.06v6.87h-.81l-2.31-6.12h-8.88v10.8h3.9l1.77-4.35h.78v9.48h-.78l-1.8-4.41h-3.87v11.01h9.42l2.46-6.6h.78v7.32h-18.72zm40.551.3c-1.12 0-1.96-.27-2.52-.81s-.94-1.46-1.14-2.76l-.57-4.02c-.2-1.36-.67-2.42-1.41-3.18-.72-.78-1.85-1.17-3.39-1.17h-2.34v10.56l2.76.45v.63h-8.82v-.63l2.76-.45V94.04l-2.76-.42v-.66h8.4c3.26 0 5.62.51 7.08 1.53s2.19 2.57 2.19 4.65c0 3.44-2.08 5.43-6.24 5.97v.18c1.54.22 2.77.77 3.69 1.65.94.88 1.53 2.05 1.77 3.51l.39 2.58c.16 1.12.34 1.88.54 2.28.22.4.55.6.99.6.3 0 .62-.09.96-.27.34-.2.66-.45.96-.75l.51.54c-.58.66-1.18 1.13-1.8 1.41-.62.28-1.29.42-2.01.42zm-8.01-12.66c1.46 0 2.59-.44 3.39-1.32.82-.9 1.23-2.22 1.23-3.96v-.63c0-3.32-1.88-4.98-5.64-4.98h-2.34v10.89h3.36zm31.307 12.66c-1.12 0-1.96-.27-2.52-.81s-.94-1.46-1.14-2.76l-.57-4.02c-.2-1.36-.67-2.42-1.41-3.18-.72-.78-1.85-1.17-3.39-1.17h-2.34v10.56l2.76.45v.63h-8.82v-.63l2.76-.45V94.04l-2.76-.42v-.66h8.4c3.26 0 5.62.51 7.08 1.53s2.19 2.57 2.19 4.65c0 3.44-2.08 5.43-6.24 5.97v.18c1.54.22 2.77.77 3.69 1.65.94.88 1.53 2.05 1.77 3.51l.39 2.58c.16 1.12.34 1.88.54 2.28.22.4.55.6.99.6.3 0 .62-.09.96-.27.34-.2.66-.45.96-.75l.51.54c-.58.66-1.18 1.13-1.8 1.41-.62.28-1.29.42-2.01.42zm-8.01-12.66c1.46 0 2.59-.44 3.39-1.32.82-.9 1.23-2.22 1.23-3.96v-.63c0-3.32-1.88-4.98-5.64-4.98h-2.34v10.89h3.36zm13.877 12.36v-.63l2.76-.45V94.04l-2.76-.42v-.66h18.06v6.87h-.81l-2.31-6.12h-8.88v10.8h3.9l1.77-4.35h.78v9.48h-.78l-1.8-4.41h-3.87v11.01h9.42l2.46-6.6h.78v7.32h-18.72zm33.981.6c-2.94 0-5.09-.65-6.45-1.95-1.36-1.32-2.04-3.06-2.04-5.22V94.04l-2.76-.42v-.66h8.82v.66l-2.76.42v16.35c0 1.96.55 3.47 1.65 4.53 1.1 1.04 2.77 1.56 5.01 1.56 4.24 0 6.36-2.03 6.36-6.09v-15.6l-2.79-1.17v-.66h6.39v.66l-2.88 1.17v15.6c0 2.4-.67 4.2-2.01 5.4-1.34 1.18-3.52 1.77-6.54 1.77zm32.328-.3c-1.12 0-1.96-.27-2.52-.81s-.94-1.46-1.14-2.76l-.57-4.02c-.2-1.36-.67-2.42-1.41-3.18-.72-.78-1.85-1.17-3.39-1.17h-2.34v10.56l2.76.45v.63h-8.82v-.63l2.76-.45V94.04l-2.76-.42v-.66h8.4c3.26 0 5.62.51 7.08 1.53s2.19 2.57 2.19 4.65c0 3.44-2.08 5.43-6.24 5.97v.18c1.54.22 2.77.77 3.69 1.65.94.88 1.53 2.05 1.77 3.51l.39 2.58c.16 1.12.34 1.88.54 2.28.22.4.55.6.99.6.3 0 .62-.09.96-.27.34-.2.66-.45.96-.75l.51.54c-.58.66-1.18 1.13-1.8 1.41-.62.28-1.29.42-2.01.42zm-8.01-12.66c1.46 0 2.59-.44 3.39-1.32.82-.9 1.23-2.22 1.23-3.96v-.63c0-3.32-1.88-4.98-5.64-4.98h-2.34v10.89h3.36z" fill="#EEBB6D"/></svg>