<svg width="24" height="24" fill="none" xmlns="http://www.w3.org/2000/svg"><path d="M12 0c6.628 0 12 5.372 12 12 0 6.627-5.372 11.999-12 11.999a11.954 11.954 0 01-5.504-1.334l-4.592 1.28a1.5 1.5 0 01-1.848-1.848l1.282-4.588A11.951 11.951 0 010 12C0 5.372 5.372 0 12 0zm0 1.8a10.2 10.2 0 00-8.912 15.163l.18.325-1.335 4.78 4.785-1.334.324.18A10.2 10.2 0 1012 1.8zM8.1 13.2h5.398a.9.9 0 01.122 1.79l-.122.01H8.1a.9.9 0 01-.122-1.792l.122-.009h5.398H8.1zm0-4.2h7.806a.9.9 0 01.121 1.791l-.121.008H8.1a.9.9 0 01-.122-1.791L8.1 9h7.806H8.1z" fill="#A0742F"/></svg>