<svg width="416" height="192" viewBox="0 0 416 192" fill="none" xmlns="http://www.w3.org/2000/svg">
<path fill-rule="evenodd" clip-rule="evenodd" d="M55.86 182.172V186.96H122.892V182.172L101.916 178.752V143.184H122.892V132.468H101.916V4.56001H96.672L0 138.396V143.184H76.836V178.752L55.86 182.172ZM76.836 132.468H11.172L76.836 41.496V132.468ZM178.059 180.804C187.939 187.948 199.491 191.52 212.715 191.52C225.939 191.52 237.491 187.948 247.371 180.804C257.251 173.66 264.927 162.944 270.399 148.656C272.354 143.498 273.959 137.933 275.216 131.96H248.971C247.869 148.361 244.752 160.918 239.619 169.632C233.083 180.728 224.115 186.276 212.715 186.276C201.315 186.276 192.347 180.728 185.811 169.632C180.686 160.813 177.571 148.255 176.464 131.96H150.215C151.471 137.933 153.076 143.498 155.031 148.656C160.503 162.944 168.179 173.66 178.059 180.804ZM147.322 80.96C148.338 66.4816 150.908 53.8589 155.031 43.092C160.503 28.652 168.179 17.86 178.059 10.716C187.939 3.572 199.491 0 212.715 0C225.939 0 237.491 3.572 247.371 10.716C257.251 17.86 264.927 28.652 270.399 43.092C274.523 53.8589 277.092 66.4816 278.109 80.96H249.423V73.644C249.423 50.236 246.155 32.984 239.619 21.888C233.083 10.792 224.115 5.244 212.715 5.244C201.315 5.244 192.347 10.792 185.811 21.888C179.275 32.984 176.007 50.236 176.007 73.644V80.96H147.322ZM347.985 182.172V186.96H415.017V182.172L394.041 178.752V143.184H415.017V132.468H394.041V4.56001H388.797L292.125 138.396V143.184H368.961V178.752L347.985 182.172ZM368.961 132.468H303.297L368.961 41.496V132.468Z" fill="black"/>
<path d="M144.414 116.96V116.33L147.174 115.88V94.04L144.414 93.62V92.96H162.474V99.83H161.664L159.354 93.71H150.474V104.51H154.374L156.144 100.16H156.924V109.64H156.144L154.344 105.23H150.474V116.24H159.894L162.354 109.64H163.134V116.96H144.414Z" fill="#EEBB6D"/>
<path d="M184.965 117.26C183.845 117.26 183.005 116.99 182.445 116.45C181.885 115.91 181.505 114.99 181.305 113.69L180.735 109.67C180.535 108.31 180.065 107.25 179.325 106.49C178.605 105.71 177.475 105.32 175.935 105.32H173.595V115.88L176.355 116.33V116.96H167.535V116.33L170.295 115.88V94.04L167.535 93.62V92.96H175.935C179.195 92.96 181.555 93.47 183.015 94.49C184.475 95.51 185.205 97.06 185.205 99.14C185.205 102.58 183.125 104.57 178.965 105.11V105.29C180.505 105.51 181.735 106.06 182.655 106.94C183.595 107.82 184.185 108.99 184.425 110.45L184.815 113.03C184.975 114.15 185.155 114.91 185.355 115.31C185.575 115.71 185.905 115.91 186.345 115.91C186.645 115.91 186.965 115.82 187.305 115.64C187.645 115.44 187.965 115.19 188.265 114.89L188.775 115.43C188.195 116.09 187.595 116.56 186.975 116.84C186.355 117.12 185.685 117.26 184.965 117.26ZM176.955 104.6C178.415 104.6 179.545 104.16 180.345 103.28C181.165 102.38 181.575 101.06 181.575 99.32V98.69C181.575 95.37 179.695 93.71 175.935 93.71H173.595V104.6H176.955Z" fill="#EEBB6D"/>
<path d="M208.262 117.26C207.142 117.26 206.302 116.99 205.742 116.45C205.182 115.91 204.802 114.99 204.602 113.69L204.032 109.67C203.832 108.31 203.362 107.25 202.622 106.49C201.902 105.71 200.772 105.32 199.232 105.32H196.892V115.88L199.652 116.33V116.96H190.832V116.33L193.592 115.88V94.04L190.832 93.62V92.96H199.232C202.492 92.96 204.852 93.47 206.312 94.49C207.772 95.51 208.502 97.06 208.502 99.14C208.502 102.58 206.422 104.57 202.262 105.11V105.29C203.802 105.51 205.032 106.06 205.952 106.94C206.892 107.82 207.482 108.99 207.722 110.45L208.112 113.03C208.272 114.15 208.452 114.91 208.652 115.31C208.872 115.71 209.202 115.91 209.642 115.91C209.942 115.91 210.262 115.82 210.602 115.64C210.942 115.44 211.262 115.19 211.562 114.89L212.072 115.43C211.492 116.09 210.892 116.56 210.272 116.84C209.652 117.12 208.982 117.26 208.262 117.26ZM200.252 104.6C201.712 104.6 202.842 104.16 203.642 103.28C204.462 102.38 204.872 101.06 204.872 99.32V98.69C204.872 95.37 202.992 93.71 199.232 93.71H196.892V104.6H200.252Z" fill="#EEBB6D"/>
<path d="M214.129 116.96V116.33L216.889 115.88V94.04L214.129 93.62V92.96H232.189V99.83H231.379L229.069 93.71H220.189V104.51H224.089L225.859 100.16H226.639V109.64H225.859L224.059 105.23H220.189V116.24H229.609L232.069 109.64H232.849V116.96H214.129Z" fill="#EEBB6D"/>
<path d="M248.11 117.56C245.17 117.56 243.02 116.91 241.66 115.61C240.3 114.29 239.62 112.55 239.62 110.39V94.04L236.86 93.62V92.96H245.68V93.62L242.92 94.04V110.39C242.92 112.35 243.47 113.86 244.57 114.92C245.67 115.96 247.34 116.48 249.58 116.48C253.82 116.48 255.94 114.45 255.94 110.39V94.79L253.15 93.62V92.96H259.54V93.62L256.66 94.79V110.39C256.66 112.79 255.99 114.59 254.65 115.79C253.31 116.97 251.13 117.56 248.11 117.56Z" fill="#EEBB6D"/>
<path d="M280.438 117.26C279.318 117.26 278.478 116.99 277.918 116.45C277.358 115.91 276.978 114.99 276.778 113.69L276.208 109.67C276.008 108.31 275.538 107.25 274.798 106.49C274.078 105.71 272.948 105.32 271.408 105.32H269.068V115.88L271.828 116.33V116.96H263.008V116.33L265.768 115.88V94.04L263.008 93.62V92.96H271.408C274.668 92.96 277.028 93.47 278.488 94.49C279.948 95.51 280.678 97.06 280.678 99.14C280.678 102.58 278.598 104.57 274.438 105.11V105.29C275.978 105.51 277.208 106.06 278.128 106.94C279.068 107.82 279.658 108.99 279.898 110.45L280.288 113.03C280.448 114.15 280.628 114.91 280.828 115.31C281.048 115.71 281.378 115.91 281.818 115.91C282.118 115.91 282.438 115.82 282.778 115.64C283.118 115.44 283.438 115.19 283.738 114.89L284.248 115.43C283.668 116.09 283.068 116.56 282.448 116.84C281.828 117.12 281.158 117.26 280.438 117.26ZM272.428 104.6C273.888 104.6 275.018 104.16 275.818 103.28C276.638 102.38 277.048 101.06 277.048 99.32V98.69C277.048 95.37 275.168 93.71 271.408 93.71H269.068V104.6H272.428Z" fill="#EEBB6D"/>
</svg>
