<svg width="24" height="24" viewBox="0 0 24 24" fill="none" xmlns="http://www.w3.org/2000/svg">
<path d="M12 0C18.6276 0 24 5.37213 24 11.9994C24 18.6267 18.6276 23.9988 12 23.9988C10.0848 24.0014 8.19699 23.5438 6.49561 22.6645L1.90441 23.9448C1.64826 24.0163 1.37771 24.0184 1.12048 23.9509C0.863249 23.8834 0.628588 23.7487 0.440541 23.5607C0.252494 23.3726 0.117822 23.138 0.0503226 22.8808C-0.0171767 22.6236 -0.0150758 22.353 0.05641 22.0969L1.33801 17.5095C0.456432 15.8067 -0.00248256 13.9168 1.01003e-05 11.9994C1.01003e-05 5.37213 5.37241 0 12 0ZM12 1.79991C9.2948 1.79991 6.70039 2.8745 4.78752 4.78727C2.87465 6.70005 1.80001 9.29432 1.80001 11.9994C1.80001 13.7633 2.24761 15.4588 3.08761 16.9635L3.26761 17.2875L1.93321 22.0681L6.71761 20.7338L7.04161 20.9137C8.40287 21.6705 9.91937 22.1056 11.4748 22.1855C13.0303 22.2653 14.5834 21.988 16.015 21.3746C17.4466 20.7613 18.7188 19.8283 19.7339 18.6471C20.7491 17.4659 21.4802 16.0679 21.8713 14.5604C22.2624 13.0529 22.303 11.4758 21.99 9.95013C21.6771 8.42446 21.0189 6.99071 20.066 5.75883C19.113 4.52695 17.8906 3.52965 16.4924 2.84341C15.0943 2.15716 13.5575 1.80021 12 1.79991ZM8.10001 13.1993H13.4976C13.7256 13.1994 13.9451 13.286 14.1118 13.4417C14.2784 13.5974 14.3797 13.8105 14.3952 14.0379C14.4108 14.2654 14.3394 14.4903 14.1955 14.6672C14.0516 14.8441 13.8459 14.9598 13.62 14.9908L13.4976 14.9992H8.10001C7.87198 14.9992 7.65248 14.9126 7.48586 14.7569C7.31924 14.6012 7.21792 14.3881 7.20238 14.1606C7.18683 13.9331 7.25823 13.7082 7.40213 13.5314C7.54603 13.3545 7.75171 13.2388 7.97761 13.2077L8.10001 13.1993H13.4976H8.10001ZM8.10001 8.99955H15.906C16.1339 8.99992 16.3532 9.08675 16.5196 9.24251C16.686 9.39827 16.7871 9.61136 16.8025 9.83876C16.8179 10.0662 16.7464 10.2909 16.6025 10.4677C16.4586 10.6444 16.253 10.76 16.0272 10.7911L15.906 10.7995H8.10001C7.87198 10.7994 7.65248 10.7128 7.48586 10.5571C7.31924 10.4014 7.21792 10.1883 7.20238 9.96084C7.18683 9.73336 7.25823 9.50845 7.40213 9.33157C7.54603 9.15469 7.75171 9.03903 7.97761 9.00795L8.10001 8.99955H15.906H8.10001Z" fill="#A0742F"/>
</svg>
