<svg width="18" height="24" viewBox="0 0 18 24" fill="none" xmlns="http://www.w3.org/2000/svg">
<path d="M3.83396 1.09875C3.5536 0.899137 3.2237 0.780539 2.88041 0.755951C2.53712 0.731364 2.19369 0.801736 1.88774 0.959359C1.58179 1.11698 1.32512 1.35577 1.14587 1.64957C0.966608 1.94337 0.871672 2.28084 0.87146 2.625V21.375C0.871672 21.7192 0.966608 22.0566 1.14587 22.3504C1.32512 22.6442 1.58179 22.883 1.88774 23.0406C2.19369 23.1983 2.53712 23.2686 2.88041 23.2441C3.2237 23.2195 3.5536 23.1009 3.83396 22.9013L16.959 13.5263C17.202 13.3528 17.4001 13.1238 17.5368 12.8584C17.6735 12.5929 17.7448 12.2986 17.7448 12C17.7448 11.7014 17.6735 11.4071 17.5368 11.1417C17.4001 10.8762 17.202 10.6472 16.959 10.4738L3.83396 1.09875Z" fill="black"/>
</svg>
