<svg width="19" height="16" viewBox="0 0 19 16" fill="none" xmlns="http://www.w3.org/2000/svg">
<path d="M1 2C0.447715 2 0 2.44772 0 3C0 3.55228 0.447715 4 1 4V2ZM18 4C18.5523 4 19 3.55228 19 3C19 2.44772 18.5523 2 18 2V4ZM18 14C18.5523 14 19 13.5523 19 13C19 12.4477 18.5523 12 18 12V14ZM1 12C0.447715 12 0 12.4477 0 13C0 13.5523 0.447715 14 1 14V12ZM14 3C14 3.55228 13.5523 4 13 4V6C14.6569 6 16 4.65685 16 3H14ZM13 4C12.4477 4 12 3.55228 12 3H10C10 4.65685 11.3431 6 13 6V4ZM12 3C12 2.44772 12.4477 2 13 2V0C11.3431 0 10 1.34315 10 3H12ZM13 2C13.5523 2 14 2.44772 14 3H16C16 1.34315 14.6569 0 13 0V2ZM11 2H1V4H11V2ZM15 4H18V2H15V4ZM3 13C3 14.6569 4.34315 16 6 16V14C5.44772 14 5 13.5523 5 13H3ZM6 16C7.65685 16 9 14.6569 9 13H7C7 13.5523 6.55228 14 6 14V16ZM9 13C9 11.3431 7.65685 10 6 10V12C6.55228 12 7 12.4477 7 13H9ZM6 10C4.34315 10 3 11.3431 3 13H5C5 12.4477 5.44772 12 6 12V10ZM8 14H18V12H8V14ZM4 12H1V14H4V12Z" fill="#769250"/>
</svg>
