<svg width="19" height="12" viewBox="0 0 19 12" fill="none" xmlns="http://www.w3.org/2000/svg">
<path d="M1 0C0.447715 0 0 0.447715 0 1C0 1.55228 0.447715 2 1 2V0ZM18 2C18.5523 2 19 1.55228 19 1C19 0.447715 18.5523 0 18 0V2ZM4 12C4.55228 12 5 11.5523 5 11C5 10.4477 4.55228 10 4 10V12ZM1 10C0.447715 10 0 10.4477 0 11C0 11.5523 0.447715 12 1 12V10ZM1 5C0.447715 5 0 5.44772 0 6C0 6.55228 0.447715 7 1 7V5ZM11 7C11.5523 7 12 6.55228 12 6C12 5.44772 11.5523 5 11 5V7ZM1 12H4V10H1V12ZM18 0H1V2H18V0ZM11 5H1V7H11V5Z" fill="#769250"/>
</svg>
