<svg width="13" height="12" viewBox="0 0 13 12" fill="none" xmlns="http://www.w3.org/2000/svg">
<path d="M11.9063 4.22554L8.30897 3.67806L6.70085 0.264102C6.65693 0.170629 6.58467 0.0949614 6.49541 0.0489671C6.27155 -0.0667604 5.99951 0.0296792 5.88758 0.264102L4.27947 3.67806L0.682099 4.22554C0.58292 4.24038 0.492242 4.28934 0.422817 4.36352C0.338885 4.45386 0.292635 4.5754 0.294229 4.70142C0.295823 4.82745 0.345131 4.94766 0.431318 5.03563L3.03406 7.69291L2.41915 11.4452C2.40473 11.5324 2.41395 11.6222 2.44578 11.7043C2.4776 11.7864 2.53074 11.8575 2.59919 11.9095C2.66763 11.9616 2.74863 11.9925 2.83301 11.9988C2.91739 12.0051 3.00176 11.9865 3.07657 11.9452L6.29422 10.1736L9.51187 11.9452C9.59972 11.9941 9.70173 12.0104 9.79949 11.9926C10.046 11.9481 10.2118 11.7033 10.1693 11.4452L9.55438 7.69291L12.1571 5.03563C12.228 4.96293 12.2747 4.86798 12.2889 4.76412C12.3271 4.50447 12.1543 4.26412 11.9063 4.22554Z" fill="#C6C6C6"/>
</svg>
