<svg width="140" height="59" viewBox="0 0 140 59" fill="none" xmlns="http://www.w3.org/2000/svg">
    <path d="M0 4.0635V0.300998H12.7925V4.0635H8.46563V26.6385H4.32688V4.0635H0Z" fill="black"/>
    <path d="M28.1603 15.351V26.6385H24.0215V0.300998H28.1603V11.5885H32.8634V0.300998H37.0774V26.6385H32.8634V15.351H28.1603Z" fill="black"/>
    <path d="M53.2846 6.35863V20.5809C53.2846 22.3116 53.9995 23.177 55.4293 23.177C56.859 23.177 57.5739 22.3116 57.5739 20.5809V6.35863C57.5739 4.62787 56.859 3.7625 55.4293 3.7625C53.9995 3.7625 53.2846 4.62787 53.2846 6.35863ZM49.1459 20.3175V6.622C49.1459 4.515 49.6852 2.88458 50.7638 1.73075C51.8424 0.576916 53.3975 0 55.4293 0C57.461 0 59.0162 0.576916 60.0948 1.73075C61.1734 2.88458 61.7127 4.515 61.7127 6.622V20.3175C61.7127 22.4245 61.1734 24.0549 60.0948 25.2088C59.0162 26.3626 57.461 26.9395 55.4293 26.9395C53.3975 26.9395 51.8424 26.3626 50.7638 25.2088C49.6852 24.0549 49.1459 22.4245 49.1459 20.3175Z" fill="black"/>
    <path d="M79.5275 0.300998L82.5751 19.0006L85.397 0.300998H91.1536V26.6385H87.2406V7.75075L84.3811 26.6385H80.4681L77.3829 8.01413V26.6385H73.7709V0.300998H79.5275Z" fill="black"/>
    <path d="M112.751 0.300998L116.965 26.6385H112.789L112.074 21.8601H106.994L106.279 26.6385H102.479L106.693 0.300998H112.751ZM109.515 4.9665L107.521 18.2858H111.509L109.515 4.9665Z" fill="black"/>
    <path d="M127.772 6.622C127.772 4.48992 128.286 2.8595 129.314 1.73075C130.343 0.576916 131.86 0 133.867 0C135.874 0 137.391 0.576916 138.42 1.73075C139.448 2.8595 139.962 4.48992 139.962 6.622V7.44975H136.049V6.35863C136.049 4.62787 135.36 3.7625 133.98 3.7625C132.6 3.7625 131.911 4.62787 131.911 6.35863C131.911 7.08604 132.061 7.77583 132.362 8.428C132.663 9.08017 133.052 9.66963 133.529 10.1964C134.005 10.7231 134.532 11.2499 135.109 11.7766C135.686 12.2783 136.25 12.8176 136.802 13.3945C137.379 13.9463 137.906 14.5483 138.382 15.2005C138.859 15.8276 139.247 16.5801 139.548 17.458C139.849 18.3359 140 19.2891 140 20.3175C140 22.4496 139.473 24.0925 138.42 25.2464C137.366 26.3751 135.836 26.9395 133.829 26.9395C131.823 26.9395 130.293 26.3751 129.239 25.2464C128.186 24.0925 127.659 22.4496 127.659 20.3175V18.6996H131.572V20.5809C131.572 22.2865 132.287 23.1394 133.717 23.1394C135.146 23.1394 135.861 22.2865 135.861 20.5809C135.861 19.6026 135.585 18.6871 135.033 17.8343C134.482 16.9563 133.804 16.1662 133.002 15.4639C132.224 14.7615 131.434 14.0341 130.631 13.2816C129.829 12.504 129.151 11.5509 128.6 10.4221C128.048 9.26829 127.772 8.00158 127.772 6.622Z" fill="black"/>
    <path d="M27.3096 54.7231V44.0275H28.94L30.9943 49.734C31.1247 50.1035 31.2497 50.4785 31.3693 50.859C31.4997 51.2285 31.6302 51.5981 31.7606 51.9677H31.8258C31.9563 51.5981 32.0758 51.2285 32.1845 50.859C32.3041 50.4785 32.4291 50.1035 32.5595 49.734L34.5812 44.0275H36.228V54.7231H34.9562V48.8373C34.9562 48.3699 34.978 47.8427 35.0214 47.2557C35.0649 46.6688 35.103 46.1416 35.1356 45.6742H35.0704L34.2225 48.1036L32.2008 53.647H31.3041L29.2824 48.1036L28.4346 45.6742H28.3693C28.4019 46.1416 28.4346 46.6688 28.4672 47.2557C28.5106 47.8427 28.5324 48.3699 28.5324 48.8373V54.7231H27.3096Z" fill="#769250"/>
    <path d="M42.2371 54.9187C41.1827 54.9187 40.286 54.5546 39.5469 53.8263C38.8077 53.0872 38.4382 52.0709 38.4382 50.7775C38.4382 49.9079 38.6067 49.1633 38.9436 48.5438C39.2914 47.9242 39.7316 47.446 40.2643 47.109C40.8077 46.7721 41.3838 46.6036 41.9925 46.6036C43.0034 46.6036 43.7805 46.9405 44.324 47.6144C44.8783 48.2883 45.1555 49.1905 45.1555 50.3209C45.1555 50.6361 45.1392 50.8916 45.1066 51.0872H39.7588C39.8132 51.9242 40.074 52.5926 40.5414 53.0926C41.0197 53.5926 41.6392 53.8426 42.4001 53.8426C42.7805 53.8426 43.1284 53.7883 43.4436 53.6796C43.7696 53.56 44.0794 53.4079 44.3729 53.2231L44.8457 54.1035C44.5088 54.3209 44.1229 54.5111 43.6881 54.6741C43.2533 54.8372 42.7697 54.9187 42.2371 54.9187ZM39.7425 50.1253H43.9816C43.9816 48.484 43.3294 47.6634 42.0251 47.6634C41.4708 47.6634 40.9708 47.8807 40.5251 48.3155C40.0903 48.7394 39.8295 49.3427 39.7425 50.1253ZM41.7642 45.3808L41.0795 44.7123L43.3783 41.9895L44.324 42.8862L41.7642 45.3808Z" fill="#769250"/>
    <path d="M50.1135 53.7937C50.8091 53.7937 51.483 53.4296 52.1352 52.7013V48.5601C51.7983 48.2557 51.4722 48.0438 51.157 47.9242C50.8526 47.7938 50.5374 47.7286 50.2113 47.7286C49.5809 47.7286 49.0429 48.0112 48.5972 48.5764C48.1516 49.1307 47.9287 49.859 47.9287 50.7611C47.9287 51.7068 48.119 52.4513 48.4994 52.9948C48.8798 53.5274 49.4179 53.7937 50.1135 53.7937ZM49.82 54.9187C48.82 54.9187 48.0211 54.56 47.4233 53.8426C46.8364 53.1253 46.5429 52.1035 46.5429 50.7775C46.5429 49.4949 46.8907 48.4786 47.5864 47.7286C48.282 46.9786 49.0809 46.6036 49.9831 46.6036C50.4396 46.6036 50.8363 46.6851 51.1733 46.8481C51.5102 47.0112 51.8526 47.234 52.2004 47.5166L52.1352 46.1634V43.1145H53.4885V54.7231H52.3798L52.2656 53.7937H52.2167C51.9015 54.0981 51.5374 54.3644 51.1244 54.5926C50.7222 54.81 50.2874 54.9187 49.82 54.9187Z" fill="#769250"/>
    <path d="M56.842 45.1688C56.5812 45.1688 56.3583 45.0873 56.1736 44.9243C55.9996 44.7612 55.9127 44.5547 55.9127 44.3047C55.9127 44.0438 55.9996 43.8373 56.1736 43.6851C56.3583 43.5221 56.5812 43.4406 56.842 43.4406C57.1029 43.4406 57.3203 43.5221 57.4942 43.6851C57.679 43.8373 57.7714 44.0438 57.7714 44.3047C57.7714 44.5547 57.679 44.7612 57.4942 44.9243C57.3203 45.0873 57.1029 45.1688 56.842 45.1688ZM56.1572 54.7231V46.7992H57.4942V54.7231H56.1572Z" fill="#769250"/>
    <path d="M62.4848 54.9187C60.8652 54.9187 60.0555 53.8861 60.0555 51.8209V46.7992H61.4087V51.6416C61.4087 52.3807 61.5229 52.9187 61.7511 53.2557C61.9902 53.5926 62.3707 53.7611 62.8924 53.7611C63.2946 53.7611 63.6587 53.6579 63.9848 53.4513C64.3109 53.2339 64.6587 52.8916 65.0282 52.4242V46.7992H66.3652V54.7231H65.2565L65.1424 53.4839H65.0935C64.7239 53.9187 64.3326 54.2665 63.9196 54.5274C63.5065 54.7883 63.0283 54.9187 62.4848 54.9187Z" fill="#769250"/>
    <path d="M69.0382 54.7231V46.7992H70.1469L70.261 47.9405H70.3099C70.6577 47.571 71.0382 47.2557 71.4512 46.9949C71.8642 46.734 72.3045 46.6036 72.7718 46.6036C73.3697 46.6036 73.8425 46.7395 74.1903 47.0112C74.5381 47.2829 74.7935 47.6525 74.9566 48.1199C75.3696 47.6742 75.7881 47.3101 76.212 47.0275C76.6359 46.7449 77.087 46.6036 77.5653 46.6036C79.1739 46.6036 79.9783 47.6362 79.9783 49.7014V54.7231H78.6413V49.8807C78.6413 48.4677 78.1522 47.7612 77.174 47.7612C76.5761 47.7612 75.9131 48.1688 75.1848 48.984V54.7231H73.8479V49.8807C73.8479 48.4677 73.3533 47.7612 72.3642 47.7612C71.7773 47.7612 71.1142 48.1688 70.3751 48.984V54.7231H69.0382Z" fill="#769250"/>
    <path d="M89.0972 53.7937C89.7493 53.7937 90.2873 53.5166 90.7113 52.9622C91.146 52.397 91.3634 51.6253 91.3634 50.647C91.3634 49.7775 91.2004 49.0764 90.8743 48.5438C90.5591 48.0003 90.0265 47.7286 89.2765 47.7286C88.6678 47.7286 87.9613 48.0873 87.1569 48.8046V52.9622C87.5156 53.2666 87.8635 53.4839 88.2004 53.6144C88.5374 53.7339 88.8363 53.7937 89.0972 53.7937ZM85.82 58.0654V46.7992H86.9287L87.0428 47.7123H87.0917C87.4504 47.4079 87.8417 47.1471 88.2656 46.9297C88.7004 46.7123 89.1515 46.6036 89.6189 46.6036C90.6406 46.6036 91.4178 46.9731 91.9504 47.7123C92.483 48.4405 92.7493 49.4188 92.7493 50.647C92.7493 51.9948 92.4015 53.0437 91.7058 53.7937C91.021 54.5437 90.2276 54.9187 89.3254 54.9187C88.9558 54.9187 88.5863 54.8372 88.2167 54.6741C87.858 54.5111 87.4939 54.2883 87.1243 54.0057L87.1569 55.3915V58.0654H85.82Z" fill="#769250"/>
    <path d="M97.1789 54.9187C95.5594 54.9187 94.7496 53.8861 94.7496 51.8209V46.7992H96.1029V51.6416C96.1029 52.3807 96.217 52.9187 96.4452 53.2557C96.6844 53.5926 97.0648 53.7611 97.5865 53.7611C97.9887 53.7611 98.3528 53.6579 98.6789 53.4513C99.005 53.2339 99.3528 52.8916 99.7224 52.4242V46.7992H101.059V54.7231H99.9506L99.8365 53.4839H99.7876C99.418 53.9187 99.0267 54.2665 98.6137 54.5274C98.2007 54.7883 97.7224 54.9187 97.1789 54.9187Z" fill="#769250"/>
    <path d="M103.732 54.7231V46.7992H104.841L104.955 48.234H105.004C105.276 47.734 105.607 47.3373 105.999 47.0438C106.39 46.7503 106.808 46.6036 107.254 46.6036C107.569 46.6036 107.852 46.6579 108.102 46.7666L107.841 47.9405C107.711 47.897 107.591 47.8644 107.482 47.8427C107.374 47.821 107.238 47.8101 107.075 47.8101C106.738 47.8101 106.384 47.946 106.015 48.2177C105.656 48.4894 105.341 48.9623 105.069 49.6362V54.7231H103.732Z" fill="#769250"/>
    <path d="M112.437 54.9187C111.383 54.9187 110.486 54.5546 109.747 53.8263C109.008 53.0872 108.638 52.0709 108.638 50.7775C108.638 49.9079 108.807 49.1633 109.144 48.5438C109.492 47.9242 109.932 47.446 110.465 47.109C111.008 46.7721 111.584 46.6036 112.193 46.6036C113.204 46.6036 113.981 46.9405 114.524 47.6144C115.079 48.2883 115.356 49.1905 115.356 50.3209C115.356 50.6361 115.339 50.8916 115.307 51.0872H109.959C110.013 51.9242 110.274 52.5926 110.742 53.0926C111.22 53.5926 111.84 53.8426 112.6 53.8426C112.981 53.8426 113.329 53.7883 113.644 53.6796C113.97 53.56 114.28 53.4079 114.573 53.2231L115.046 54.1035C114.709 54.3209 114.323 54.5111 113.888 54.6741C113.454 54.8372 112.97 54.9187 112.437 54.9187ZM109.943 50.1253H114.182C114.182 48.484 113.53 47.6634 112.225 47.6634C111.671 47.6634 111.171 47.8807 110.725 48.3155C110.291 48.7394 110.03 49.3427 109.943 50.1253Z" fill="#769250"/>
</svg>
