<svg width="20" height="22" fill="none" xmlns="http://www.w3.org/2000/svg"><rect y="2" width="20" height="20" rx="4" fill="#769250"/><path d="M4 1a1 1 0 012 0v1H4V1zm10 0a1 1 0 112 0v1h-2V1z" fill="#769250"/><path d="M4 3a1 1 0 002 0V2H4v1zm10 0a1 1 0 102 0V2h-2v1z" fill="#FFEBCD"/><rect width="2" height="2" rx="1" transform="matrix(-1 0 0 1 15 9)" fill="#FFEBCD"/><rect width="2" height="2" rx="1" transform="matrix(-1 0 0 1 15 12)" fill="#FFEBCD"/><rect width="2" height="2" rx="1" transform="matrix(-1 0 0 1 7 12)" fill="#FFEBCD"/><rect width="2" height="2" rx="1" transform="matrix(-1 0 0 1 7 15)" fill="#FFEBCD"/><rect width="2" height="2" rx="1" transform="matrix(-1 0 0 1 11 9)" fill="#FFEBCD"/><rect width="2" height="2" rx="1" transform="matrix(-1 0 0 1 11 12)" fill="#FFEBCD"/><rect width="2" height="2" rx="1" transform="matrix(-1 0 0 1 11 15)" fill="#FFEBCD"/></svg>