<svg width="19" height="16" fill="none" xmlns="http://www.w3.org/2000/svg"><path d="M1 2a1 1 0 000 2V2zm17 2a1 1 0 100-2v2zm0 10a1 1 0 100-2v2zM1 12a1 1 0 100 2v-2zm13-9a1 1 0 01-1 1v2a3 3 0 003-3h-2zm-1 1a1 1 0 01-1-1h-2a3 3 0 003 3V4zm-1-1a1 1 0 011-1V0a3 3 0 00-3 3h2zm1-1a1 1 0 011 1h2a3 3 0 00-3-3v2zm-2 0H1v2h10V2zm4 2h3V2h-3v2zM3 13a3 3 0 003 3v-2a1 1 0 01-1-1H3zm3 3a3 3 0 003-3H7a1 1 0 01-1 1v2zm3-3a3 3 0 00-3-3v2a1 1 0 011 1h2zm-3-3a3 3 0 00-3 3h2a1 1 0 011-1v-2zm2 4h10v-2H8v2zm-4-2H1v2h3v-2z" fill="#769250"/></svg>