<svg width="140" height="59" fill="none" xmlns="http://www.w3.org/2000/svg"><path d="M0 4.064V.3h12.793v3.763H8.466v22.575h-4.14V4.064H0zm28.16 11.287v11.287h-4.139V.302h4.14v11.287h4.702V.301h4.214v26.338h-4.214V15.35H28.16zm25.125-8.992V20.58c0 1.73.715 2.596 2.144 2.596 1.43 0 2.145-.865 2.145-2.596V6.359c0-1.731-.715-2.596-2.145-2.596-1.43 0-2.144.865-2.144 2.596zm-4.14 13.958V6.622c0-2.107.54-3.737 1.619-4.891C51.842.577 53.397 0 55.429 0s3.587.577 4.666 1.73c1.078 1.155 1.618 2.785 1.618 4.892v13.695c0 2.107-.54 3.738-1.618 4.892-1.079 1.154-2.634 1.73-4.666 1.73-2.032 0-3.587-.576-4.665-1.73-1.079-1.154-1.618-2.785-1.618-4.892zM79.528.301l3.047 18.7L85.397.3h5.757v26.338H87.24V7.75l-2.86 18.887h-3.913L77.383 8.015V26.64H73.77V.3h5.757zm33.223 0l4.214 26.338h-4.176l-.715-4.779h-5.08l-.715 4.779h-3.8L106.693.3h6.058zm-3.236 4.665l-1.994 13.32h3.988l-1.994-13.32zm18.257 1.656c0-2.132.514-3.762 1.542-4.891C130.343.577 131.86 0 133.867 0s3.524.577 4.553 1.73c1.028 1.13 1.542 2.76 1.542 4.892v.828h-3.913V6.359c0-1.731-.689-2.596-2.069-2.596s-2.069.865-2.069 2.596c0 .727.15 1.417.451 2.069a6.97 6.97 0 001.167 1.768 23.305 23.305 0 001.58 1.58 25.527 25.527 0 011.693 1.619 13.531 13.531 0 011.58 1.806c.477.627.865 1.38 1.166 2.257.301.878.452 1.831.452 2.86 0 2.132-.527 3.774-1.58 4.928-1.054 1.13-2.584 1.694-4.591 1.694-2.006 0-3.536-.565-4.59-1.694-1.053-1.153-1.58-2.796-1.58-4.928V18.7h3.913v1.88c0 1.707.715 2.56 2.145 2.56 1.429 0 2.144-.854 2.144-2.56 0-.977-.276-1.893-.828-2.746a10.708 10.708 0 00-2.031-2.37 180.93 180.93 0 01-2.371-2.182c-.802-.778-1.48-1.731-2.031-2.86-.552-1.154-.828-2.42-.828-3.8z" fill="#000"/><path d="M27.31 54.723V44.028h1.63l2.054 5.706c.13.37.256.744.375 1.125l.392 1.109h.065c.13-.37.25-.74.358-1.109.12-.38.245-.756.376-1.125l2.021-5.706h1.647v10.695h-1.272v-5.886c0-.467.022-.994.065-1.581.044-.587.082-1.114.115-1.582h-.066l-.848 2.43-2.021 5.543h-.897l-2.022-5.543-.847-2.43h-.066c.033.468.066.995.098 1.582.044.587.065 1.114.065 1.581v5.886H27.31zm14.927.196c-1.054 0-1.951-.364-2.69-1.093-.74-.739-1.109-1.755-1.109-3.048 0-.87.169-1.615.506-2.234.347-.62.788-1.098 1.32-1.435a3.226 3.226 0 011.728-.505c1.011 0 1.789.337 2.332 1.01.554.674.832 1.577.832 2.707 0 .315-.017.57-.05.766H39.76c.054.837.315 1.506.782 2.006.479.5 1.098.75 1.86.75.38 0 .727-.055 1.043-.163.326-.12.635-.272.929-.457l.473.88a6.039 6.039 0 01-1.158.571 4.104 4.104 0 01-1.45.245zm-2.495-4.794h4.24c0-1.641-.653-2.462-1.957-2.462-.554 0-1.054.218-1.5.653-.435.423-.695 1.027-.782 1.81zm2.022-4.744l-.684-.669 2.298-2.723.946.897-2.56 2.495zm8.35 8.413c.695 0 1.369-.364 2.021-1.093v-4.14c-.337-.305-.663-.517-.978-.637a2.378 2.378 0 00-.946-.195c-.63 0-1.168.282-1.614.847-.445.555-.668 1.283-.668 2.185 0 .946.19 1.69.57 2.234.38.532.919.799 1.614.799zm-.294 1.125c-1 0-1.799-.359-2.397-1.076-.587-.718-.88-1.74-.88-3.066 0-1.282.348-2.298 1.043-3.048.696-.75 1.495-1.125 2.397-1.125.457 0 .853.081 1.19.244.337.163.68.386 1.027.669l-.065-1.354v-3.048h1.354v11.608h-1.11l-.113-.93h-.05a5.14 5.14 0 01-1.092.8 2.7 2.7 0 01-1.304.326zm7.022-9.75a.975.975 0 01-.668-.245.812.812 0 01-.261-.62c0-.26.087-.467.26-.619a.975.975 0 01.669-.244c.26 0 .478.081.652.244a.76.76 0 01.277.62.79.79 0 01-.277.62.917.917 0 01-.652.244zm-.685 9.554V46.8h1.337v7.924h-1.337zm6.328.196c-1.62 0-2.43-1.033-2.43-3.098v-5.022h1.354v4.843c0 .739.114 1.277.342 1.614.24.337.62.505 1.141.505.403 0 .767-.103 1.093-.31.326-.217.674-.56 1.043-1.027V46.8h1.337v7.924h-1.108l-.115-1.24h-.048a5.2 5.2 0 01-1.174 1.044c-.413.261-.892.392-1.435.392zm6.553-.196V46.8h1.109l.114 1.142h.049c.348-.37.728-.685 1.141-.946a2.43 2.43 0 011.32-.391c.599 0 1.072.136 1.42.407.347.272.602.642.766 1.109a7.1 7.1 0 011.255-1.092 2.397 2.397 0 011.353-.424c1.609 0 2.413 1.032 2.413 3.097v5.022h-1.337v-4.842c0-1.413-.489-2.12-1.467-2.12-.598 0-1.26.408-1.99 1.223v5.74h-1.336V49.88c0-1.413-.495-2.12-1.484-2.12-.587 0-1.25.408-1.989 1.223v5.74h-1.337zm20.059-.929c.652 0 1.19-.277 1.614-.832.435-.565.652-1.337.652-2.315 0-.87-.163-1.57-.489-2.103-.315-.544-.847-.815-1.597-.815-.61 0-1.316.358-2.12 1.076v4.157c.359.305.707.522 1.043.652.337.12.636.18.897.18zm-3.277 4.271V46.8h1.109l.114.913h.049c.358-.304.75-.565 1.174-.782a2.99 2.99 0 011.353-.326c1.022 0 1.799.37 2.331 1.108.533.728.8 1.707.8 2.935 0 1.348-.349 2.397-1.044 3.147-.685.75-1.478 1.125-2.38 1.125-.37 0-.74-.082-1.11-.245a5.683 5.683 0 01-1.092-.668l.033 1.386v2.673H85.82zm11.359-3.146c-1.62 0-2.43-1.033-2.43-3.098v-5.022h1.354v4.843c0 .739.114 1.277.342 1.614.24.337.62.505 1.142.505.402 0 .766-.103 1.092-.31.326-.217.674-.56 1.043-1.027V46.8h1.337v7.924h-1.108l-.114-1.24h-.05a5.2 5.2 0 01-1.173 1.044c-.413.261-.892.392-1.435.392zm6.553-.196V46.8h1.109l.114 1.435h.049c.272-.5.603-.897.995-1.19.391-.294.809-.44 1.255-.44.315 0 .598.054.848.163l-.261 1.173a2.97 2.97 0 00-.359-.097 2.12 2.12 0 00-.407-.033c-.337 0-.691.136-1.06.408-.359.271-.674.744-.946 1.418v5.087h-1.337zm8.705.196c-1.054 0-1.951-.364-2.69-1.093-.739-.739-1.109-1.755-1.109-3.048 0-.87.169-1.615.506-2.234.348-.62.788-1.098 1.321-1.435a3.224 3.224 0 011.728-.505c1.011 0 1.788.337 2.331 1.01.555.674.832 1.577.832 2.707 0 .315-.017.57-.049.766h-5.348c.054.837.315 1.506.783 2.006.478.5 1.098.75 1.858.75.381 0 .729-.055 1.044-.163.326-.12.636-.272.929-.457l.473.88a6.04 6.04 0 01-1.158.571 4.1 4.1 0 01-1.451.245zm-2.494-4.794h4.239c0-1.641-.652-2.462-1.957-2.462-.554 0-1.054.218-1.5.653-.434.423-.695 1.027-.782 1.81z" fill="#769250"/></svg>